<svg width="66" height="66" viewBox="0 0 66 66" fill="none" xmlns="http://www.w3.org/2000/svg">
<path d="M0 12.3485C0 5.52861 5.5286 0 12.3485 0H53.5101C60.3299 0 65.8586 5.5286 65.8586 12.3485V53.5101C65.8586 60.3299 60.33 65.8586 53.5101 65.8586H12.3485C5.52861 65.8586 0 60.33 0 53.5101V12.3485Z" fill="#3491D1" fill-opacity="0.1"/>
<path d="M20 38H46C46.5523 38 47 37.5523 47 37V23C47 22.4477 46.5523 22 46 22L20 22C19.4477 22 19 22.4477 19 23L19 37C19 37.5523 19.4477 38 20 38Z" stroke="#3491D1" stroke-width="2" stroke-linejoin="round"/>
<path d="M21 41H45M23 44H43" stroke="#3491D1" stroke-width="2" stroke-linecap="round" stroke-linejoin="round"/>
<path d="M33 35C35.7614 35 38 32.7614 38 30C38 27.2386 35.7614 25 33 25C30.2386 25 28 27.2386 28 30C28 32.7614 30.2386 35 33 35Z" stroke="#3491D1" stroke-width="2" stroke-linecap="round" stroke-linejoin="round"/>
<path d="M47 27C45.6739 27 44.4021 26.4732 43.4645 25.5355C42.5268 24.5979 42 23.3261 42 22M19 27C19.6566 27 20.3068 26.8707 20.9134 26.6194C21.52 26.3681 22.0712 25.9998 22.5355 25.5355C22.9998 25.0712 23.3681 24.52 23.6194 23.9134C23.8707 23.3068 24 22.6566 24 22M47 33C45.6739 33 44.4021 33.5268 43.4645 34.4645C42.5268 35.4021 42 36.6739 42 38M19 33C19.6566 33 20.3068 33.1293 20.9134 33.3806C21.52 33.6319 22.0712 34.0002 22.5355 34.4645C22.9998 34.9288 23.3681 35.48 23.6194 36.0866C23.8707 36.6932 24 37.3434 24 38" stroke="#3491D1" stroke-width="2" stroke-linecap="round" stroke-linejoin="round"/>
</svg>
