<svg width="12" height="13" viewBox="0 0 12 13" fill="none" xmlns="http://www.w3.org/2000/svg">
<g clip-path="url(#clip0_1_21229)">
<path d="M10.9018 5.02078C11.1302 6.14172 10.9675 7.30708 10.4406 8.32252C9.91383 9.33796 9.05482 10.1421 8.00686 10.6009C6.95891 11.0596 5.78535 11.1452 4.68191 10.8434C3.57847 10.5417 2.61183 9.87071 1.94321 8.94249C1.27458 8.01427 0.944376 6.88488 1.00766 5.74266C1.07095 4.60045 1.5239 3.51445 2.29098 2.66577C3.05806 1.8171 4.0929 1.25705 5.22293 1.07901C6.35296 0.900979 7.50987 1.11572 8.50073 1.68744" stroke="#1AC72E" stroke-linecap="round" stroke-linejoin="round"/>
<path d="M4.5 5.52091L6.00038 7.02129L11.0016 2.02002" stroke="#1AC72E" stroke-linecap="round" stroke-linejoin="round"/>
</g>
<defs>
<clipPath id="clip0_1_21229">
<rect width="12.003" height="12.003" fill="white" transform="translate(0 0.0200195)"/>
</clipPath>
</defs>
</svg>
