<svg width="48" height="48" viewBox="0 0 48 48" fill="none" xmlns="http://www.w3.org/2000/svg">
<path d="M0 12.2462C0 5.67156 5.32977 0.341797 11.9044 0.341797H35.7132C42.2878 0.341797 47.6175 5.67157 47.6175 12.2462V36.0549C47.6175 42.6296 42.2878 47.9593 35.7131 47.9593H11.9044C5.32976 47.9593 0 42.6295 0 36.0549V12.2462Z" fill="#3491D1" fill-opacity="0.1"/>
<path d="M23.8086 19.1904V33.0789" stroke="#3491D1" stroke-width="1.98406" stroke-linecap="round" stroke-linejoin="round"/>
<path d="M14.8788 30.1031C14.6156 30.1031 14.3633 29.9986 14.1773 29.8126C13.9912 29.6265 13.8867 29.3742 13.8867 29.1111V16.2147C13.8867 15.9516 13.9912 15.6993 14.1773 15.5132C14.3633 15.3272 14.6156 15.2227 14.8788 15.2227H19.8389C20.8913 15.2227 21.9006 15.6407 22.6448 16.3849C23.389 17.1291 23.807 18.1384 23.807 19.1908C23.807 18.1384 24.2251 17.1291 24.9693 16.3849C25.7134 15.6407 26.7228 15.2227 27.7752 15.2227H32.7353C32.9984 15.2227 33.2508 15.3272 33.4368 15.5132C33.6228 15.6993 33.7274 15.9516 33.7274 16.2147V29.1111C33.7274 29.3742 33.6228 29.6265 33.4368 29.8126C33.2508 29.9986 32.9984 30.1031 32.7353 30.1031H26.7831C25.9938 30.1031 25.2368 30.4167 24.6787 30.9748C24.1206 31.5329 23.807 32.2899 23.807 33.0792C23.807 32.2899 23.4935 31.5329 22.9354 30.9748C22.3772 30.4167 21.6203 30.1031 20.8309 30.1031H14.8788Z" stroke="#3491D1" stroke-width="1.98406" stroke-linecap="round" stroke-linejoin="round"/>
</svg>
