<svg width="66" height="66" viewBox="0 0 66 66" fill="none" xmlns="http://www.w3.org/2000/svg">
<path d="M0 12.3485C0 5.52861 5.5286 0 12.3485 0H53.5101C60.3299 0 65.8586 5.5286 65.8586 12.3485V53.5101C65.8586 60.3299 60.33 65.8586 53.5101 65.8586H12.3485C5.52861 65.8586 0 60.33 0 53.5101V12.3485Z" fill="#3491D1" fill-opacity="0.1"/>
<path d="M33 38.3333H33.0107M33 27.6667V34.3333M21.3067 27.5507L27.5467 21.3067C27.7467 21.1067 28.0133 21 28.3067 21H37.7067C37.9867 21 38.2667 21.1067 38.4667 21.3067L44.6933 27.5373C44.8933 27.7373 45 28.004 45 28.2973V37.7027C45 37.9827 44.8933 38.2627 44.6933 38.4627L38.4667 44.6933C38.2667 44.8933 38 45 37.7067 45H28.2933C28.1527 45.0015 28.0131 44.9752 27.8827 44.9226C27.7523 44.8699 27.6335 44.792 27.5333 44.6933L21.3067 38.4627C21.208 38.3625 21.1301 38.2437 21.0774 38.1133C21.0248 37.9829 20.9985 37.8433 21 37.7027V28.2973C21 28.0173 21.1067 27.7373 21.3067 27.5373V27.5507Z" stroke="#3491D1" stroke-width="2" stroke-miterlimit="10" stroke-linecap="round" stroke-linejoin="round"/>
</svg>
