<svg width="31" height="31" viewBox="0 0 31 31" fill="none" xmlns="http://www.w3.org/2000/svg">
<path d="M0 15.5C0 6.93959 6.93959 0 15.5 0C24.0604 0 31 6.93959 31 15.5C31 24.0604 24.0604 31 15.5 31C6.93959 31 0 24.0604 0 15.5Z" fill="#3491D1"/>
<path d="M19.8076 8.3252H17.6548C16.7032 8.3252 15.7906 8.70321 15.1177 9.37609C14.4449 10.049 14.0668 10.9616 14.0668 11.9132V14.0659H11.9141V16.9363H14.0668V22.677H16.9372V16.9363H19.09L19.8076 14.0659H16.9372V11.9132C16.9372 11.7228 17.0128 11.5403 17.1474 11.4057C17.282 11.2712 17.4645 11.1956 17.6548 11.1956H19.8076V8.3252Z" stroke="white" stroke-width="1.72222" stroke-linecap="round" stroke-linejoin="round"/>
</svg>
