<svg width="66" height="66" viewBox="0 0 66 66" fill="none" xmlns="http://www.w3.org/2000/svg">
<path d="M0 12.3485C0 5.52861 5.5286 0 12.3485 0H53.5101C60.3299 0 65.8586 5.5286 65.8586 12.3485V53.5101C65.8586 60.3299 60.33 65.8586 53.5101 65.8586H12.3485C5.52861 65.8586 0 60.33 0 53.5101V12.3485Z" fill="#3491D1" fill-opacity="0.1"/>
<path d="M36.9987 22.333C39.8277 22.333 42.5408 23.4568 44.5412 25.4572C46.5416 27.4576 47.6654 30.1707 47.6654 32.9997C47.6654 35.8287 46.5416 38.5418 44.5412 40.5421C42.5408 42.5425 39.8277 43.6663 36.9987 43.6663C34.1697 43.6663 31.4566 42.5425 29.4562 40.5421C27.4558 38.5418 26.332 35.8287 26.332 32.9997C26.332 30.1707 27.4558 27.4576 29.4562 25.4572C31.4566 23.4568 34.1697 22.333 36.9987 22.333ZM36.9987 24.9997C34.877 24.9997 32.8421 25.8425 31.3418 27.3428C29.8416 28.8431 28.9987 30.8779 28.9987 32.9997C28.9987 35.1214 29.8416 37.1562 31.3418 38.6565C32.8421 40.1568 34.877 40.9997 36.9987 40.9997C39.1204 40.9997 41.1553 40.1568 42.6556 38.6565C44.1558 37.1562 44.9987 35.1214 44.9987 32.9997C44.9987 30.8779 44.1558 28.8431 42.6556 27.3428C41.1553 25.8425 39.1204 24.9997 36.9987 24.9997ZM35.6654 27.6663H37.6654V32.7063L40.772 35.813L39.3587 37.2263L35.6654 33.533V27.6663ZM19.6654 40.9997C19.3117 40.9997 18.9726 40.8592 18.7226 40.6092C18.4725 40.3591 18.332 40.02 18.332 39.6663C18.332 39.3127 18.4725 38.9736 18.7226 38.7235C18.9726 38.4735 19.3117 38.333 19.6654 38.333H24.772C25.1854 39.2797 25.7187 40.173 26.332 40.9997H19.6654ZM20.9987 34.333C20.6451 34.333 20.3059 34.1925 20.0559 33.9425C19.8058 33.6924 19.6654 33.3533 19.6654 32.9997C19.6654 32.6461 19.8058 32.3069 20.0559 32.0569C20.3059 31.8068 20.6451 31.6663 20.9987 31.6663H23.732L23.6654 32.9997L23.732 34.333H20.9987ZM22.332 27.6663C21.9784 27.6663 21.6393 27.5259 21.3892 27.2758C21.1392 27.0258 20.9987 26.6866 20.9987 26.333C20.9987 25.9794 21.1392 25.6402 21.3892 25.3902C21.6393 25.1402 21.9784 24.9997 22.332 24.9997H26.332C25.7187 25.8263 25.1854 26.7197 24.772 27.6663H22.332Z" fill="#3491D1"/>
</svg>
