<svg width="290" height="345" viewBox="0 0 290 345" fill="none" xmlns="http://www.w3.org/2000/svg">
<g clip-path="url(#clip0_1_21340)">
<circle cx="137.698" cy="142.229" r="137.698" fill="#3491D1"/>
<circle opacity="0.8" cx="137.698" cy="142.229" r="107.098" fill="#D59643"/>
<path d="M81.2988 59.8818H169.636L200.292 88.1797V218.342C200.292 221.886 197.418 224.759 193.874 224.759H81.2988C77.7547 224.759 74.882 221.886 74.8818 218.342V66.2988C74.882 62.7547 77.7547 59.882 81.2988 59.8818Z" fill="#F5F8FF" stroke="#3491D1" stroke-width="1.76281"/>
<path fill-rule="evenodd" clip-rule="evenodd" d="M89.5469 94.9921C89.5469 92.9765 91.1808 91.3425 93.1964 91.3425H163.862C165.877 91.3425 167.511 92.9765 167.511 94.9921C167.511 97.0077 165.877 98.6417 163.862 98.6417H93.1964C91.1808 98.6417 89.5469 97.0077 89.5469 94.9921ZM89.5469 117.487C89.5469 115.472 91.1808 113.838 93.1964 113.838H184.377C186.393 113.838 188.027 115.472 188.027 117.487C188.027 119.503 186.393 121.137 184.377 121.137H93.1964C91.1808 121.137 89.5469 119.503 89.5469 117.487ZM89.5469 139.983C89.5469 137.967 91.1808 136.333 93.1964 136.333H118.271C120.287 136.333 121.921 137.967 121.921 139.983C121.921 141.998 120.287 143.632 118.271 143.632H93.1964C91.1808 143.632 89.5469 141.998 89.5469 139.983ZM130.578 139.983C130.578 137.967 132.212 136.333 134.228 136.333H184.377C186.393 136.333 188.027 137.967 188.027 139.983C188.027 141.998 186.393 143.632 184.377 143.632H134.228C132.212 143.632 130.578 141.998 130.578 139.983ZM89.5469 162.478C89.5469 160.462 91.1808 158.828 93.1964 158.828H159.302C161.318 158.828 162.952 160.462 162.952 162.478C162.952 164.493 161.318 166.127 159.302 166.127H93.1964C91.1808 166.127 89.5469 164.493 89.5469 162.478ZM171.61 162.478C171.61 160.462 173.243 158.828 175.259 158.828H184.377C186.393 158.828 188.027 160.462 188.027 162.478C188.027 164.493 186.393 166.127 184.377 166.127H175.259C173.243 166.127 171.61 164.493 171.61 162.478ZM89.5469 182.724C89.5469 180.708 91.1808 179.074 93.1964 179.074H177.539C179.554 179.074 181.188 180.708 181.188 182.724C181.188 184.739 179.554 186.373 177.539 186.373H93.1964C91.1808 186.373 89.5469 184.739 89.5469 182.724ZM89.5469 202.969C89.5469 200.954 91.1808 199.32 93.1964 199.32H154.743C156.759 199.32 158.393 200.954 158.393 202.969C158.393 204.985 156.759 206.619 154.743 206.619H93.1964C91.1808 206.619 89.5469 204.985 89.5469 202.969Z" fill="#3491D1"/>
<path d="M89.5469 94.9921C89.5469 92.9765 91.1808 91.3425 93.1964 91.3425H163.862C165.877 91.3425 167.511 92.9765 167.511 94.9921C167.511 97.0077 165.877 98.6417 163.862 98.6417H93.1964C91.1808 98.6417 89.5469 97.0077 89.5469 94.9921Z" fill="#3491D1"/>
<path d="M169.979 59L201.173 87.7939H177.967C173.556 87.7939 169.979 84.2177 169.979 79.8062V59Z" fill="#3491D1"/>
<circle cx="59.6793" cy="132.179" r="9.83554" stroke="#1C5189" stroke-width="2"/>
<path d="M142.541 345.374C192.095 345.374 232.266 343.029 232.266 340.136C232.266 337.243 192.095 334.897 142.541 334.897C92.9868 334.897 52.8154 337.243 52.8154 340.136C52.8154 343.029 92.9868 345.374 142.541 345.374Z" fill="#3491D1"/>
<path d="M189.724 203.404L203.205 189.922L258.76 237.339C265.564 243.147 265.974 253.521 259.648 259.847C253.323 266.172 242.948 265.763 237.141 258.959L189.724 203.404Z" fill="#1C5189"/>
<path d="M199.295 214.619L237.14 258.96C242.948 265.764 253.322 266.173 259.648 259.848C265.973 253.522 265.564 243.148 258.76 237.34L209.263 195.094C207.271 202.274 203.843 208.885 199.295 214.619Z" fill="#1C5189"/>
<path fill-rule="evenodd" clip-rule="evenodd" d="M146.421 133.685C140.076 137.814 135.051 143.788 132.001 150.869C128.951 157.95 128.02 165.806 129.334 173.438C130.648 181.068 134.143 188.112 139.357 193.683C144.569 199.252 151.263 203.099 158.583 204.761C165.901 206.422 173.538 205.828 180.533 203.05L180.534 203.05C185.18 201.205 189.435 198.439 193.052 194.903C196.669 191.366 199.576 187.128 201.601 182.427C203.626 177.725 204.727 172.657 204.838 167.513C204.949 162.368 204.067 157.255 202.246 152.465L202.246 152.464C199.503 145.251 194.739 139.053 188.576 134.639C182.415 130.227 175.128 127.791 167.637 127.622C160.146 127.453 152.763 129.557 146.421 133.685ZM120.278 145.819C124.31 136.457 130.977 128.506 139.457 122.987C147.939 117.466 157.847 114.632 167.925 114.86C178.003 115.087 187.777 118.365 196.009 124.261C204.239 130.155 210.554 138.397 214.178 147.929C216.584 154.258 217.746 161.006 217.6 167.788C217.454 174.57 216.002 181.26 213.324 187.477C210.646 193.694 206.793 199.32 201.977 204.029C197.16 208.739 191.476 212.44 185.245 214.914C175.859 218.642 165.595 219.442 155.757 217.209C145.921 214.977 136.973 209.817 130.037 202.405C123.102 194.995 118.487 185.666 116.754 175.604C115.022 165.542 116.246 155.179 120.278 145.819Z" fill="#1C5189"/>
<path opacity="0.1" d="M253.776 237.783L213.751 205.008C212.51 203.992 211.064 205.421 212.069 206.67L244.39 246.87C245.637 248.421 247.438 249.429 249.314 249.625L250.423 249.741C254.256 250.142 257.139 247.113 256.574 243.28L256.443 242.388C256.184 240.631 255.219 238.965 253.776 237.783Z" fill="#3491D1"/>
<rect width="51.9248" height="8.95255" rx="4.47628" transform="matrix(-0.707107 0.707107 0.707107 0.707107 181.716 145)" fill="#1C5189"/>
<rect width="51.9248" height="8.95255" rx="4.47628" transform="matrix(0.707107 0.707107 0.707107 -0.707107 145 151.33)" fill="#1C5189"/>
<rect width="29.0008" height="5.00014" rx="2.50007" transform="matrix(-0.707107 0.707107 0.707107 0.707107 251.601 88.3594)" fill="#1C5189"/>
<rect width="29.0008" height="5.00014" rx="2.50007" transform="matrix(0.707107 0.707107 0.707107 -0.707107 231.094 91.8955)" fill="#1C5189"/>
<rect width="24.5958" height="4.24066" rx="2.12033" transform="matrix(-0.707107 0.707107 0.707107 0.707107 101.22 246.953)" fill="#1C5189"/>
<rect width="24.5958" height="4.24066" rx="2.12033" transform="matrix(0.707107 0.707107 0.707107 -0.707107 83.8281 249.953)" fill="#1C5189"/>
</g>
<defs>
<clipPath id="clip0_1_21340">
<rect width="290" height="345" fill="white"/>
</clipPath>
</defs>
</svg>
