<svg width="24" height="24" viewBox="0 0 24 24" fill="none" xmlns="http://www.w3.org/2000/svg">
<path d="M0 6.75C0 3.02208 3.02208 0 6.75 0H17.25C20.9779 0 24 3.02208 24 6.75V17.25C24 20.9779 20.9779 24 17.25 24H6.75C3.02208 24 0 20.9779 0 17.25V6.75Z" fill="#3491D1" fill-opacity="0.1"/>
<path d="M11.25 4.5V6" stroke="#3491D1" stroke-linecap="round" stroke-linejoin="round"/>
<path d="M6.75 4.5V6" stroke="#3491D1" stroke-linecap="round" stroke-linejoin="round"/>
<path d="M6.75 5.25H6C5.60218 5.25 5.22064 5.40804 4.93934 5.68934C4.65804 5.97064 4.5 6.35218 4.5 6.75V9.75C4.5 10.9435 4.97411 12.0881 5.81802 12.932C6.66193 13.7759 7.80653 14.25 9 14.25C10.1935 14.25 11.3381 13.7759 12.182 12.932C13.0259 12.0881 13.5 10.9435 13.5 9.75V6.75C13.5 6.35218 13.342 5.97064 13.0607 5.68934C12.7794 5.40804 12.3978 5.25 12 5.25H11.25" stroke="#3491D1" stroke-linecap="round" stroke-linejoin="round"/>
<path d="M9 14.25C9 15.4435 9.47411 16.5881 10.318 17.432C11.1619 18.2759 12.3065 18.75 13.5 18.75C14.6935 18.75 15.8381 18.2759 16.682 17.432C17.5259 16.5881 18 15.4435 18 14.25V12" stroke="#3491D1" stroke-linecap="round" stroke-linejoin="round"/>
<path d="M18 12C18.8284 12 19.5 11.3284 19.5 10.5C19.5 9.67157 18.8284 9 18 9C17.1716 9 16.5 9.67157 16.5 10.5C16.5 11.3284 17.1716 12 18 12Z" stroke="#3491D1" stroke-linecap="round" stroke-linejoin="round"/>
</svg>
