<svg width="32" height="31" viewBox="0 0 32 31" fill="none" xmlns="http://www.w3.org/2000/svg">
<path d="M0.335449 15.5C0.335449 6.93959 7.27504 0 15.8354 0C24.3959 0 31.3354 6.93959 31.3354 15.5C31.3354 24.0604 24.3959 31 15.8354 31C7.27504 31 0.335449 24.0604 0.335449 15.5Z" fill="#3491D1"/>
<g clip-path="url(#clip0_177_5474)">
<path d="M19.4236 8.3252H12.2476C10.2661 8.3252 8.65967 9.93158 8.65967 11.9132V19.0891C8.65967 21.0707 10.2661 22.677 12.2476 22.677H19.4236C21.4051 22.677 23.0115 21.0707 23.0115 19.0891V11.9132C23.0115 9.93158 21.4051 8.3252 19.4236 8.3252Z" stroke="white" stroke-width="1.72222" stroke-linecap="round" stroke-linejoin="round"/>
<path d="M18.7053 15.048C18.7939 15.6452 18.6919 16.2551 18.4138 16.791C18.1357 17.3269 17.6958 17.7615 17.1565 18.0329C16.6172 18.3044 16.006 18.3988 15.41 18.3029C14.8139 18.207 14.2632 17.9256 13.8363 17.4987C13.4094 17.0718 13.128 16.5211 13.0321 15.925C12.9361 15.3289 13.0306 14.7178 13.3021 14.1785C13.5735 13.6392 14.0081 13.1993 14.544 12.9212C15.0799 12.6431 15.6898 12.5411 16.287 12.6297C16.8962 12.72 17.4602 13.0039 17.8956 13.4393C18.3311 13.8748 18.615 14.4388 18.7053 15.048Z" stroke="white" stroke-width="1.72222" stroke-linecap="round" stroke-linejoin="round"/>
<path d="M19.7808 11.5537H19.7877" stroke="white" stroke-width="1.72222" stroke-linecap="round" stroke-linejoin="round"/>
</g>
<defs>
<clipPath id="clip0_177_5474">
<rect width="17.2222" height="17.2222" fill="white" transform="translate(7.22217 6.88965)"/>
</clipPath>
</defs>
</svg>
