<svg width="12" height="13" viewBox="0 0 12 13" fill="none" xmlns="http://www.w3.org/2000/svg">
<g clip-path="url(#clip0_301_35623)">
<path d="M7.74238 6.93359L8.50007 11.1977C8.50856 11.2479 8.50151 11.2995 8.47988 11.3456C8.45824 11.3917 8.42305 11.4301 8.37901 11.4556C8.33496 11.4812 8.28416 11.4927 8.23341 11.4886C8.18265 11.4845 8.13435 11.465 8.09497 11.4327L6.30451 10.0889C6.21808 10.0243 6.11308 9.98943 6.00519 9.98943C5.8973 9.98943 5.7923 10.0243 5.70586 10.0889L3.91241 11.4322C3.87306 11.4645 3.82482 11.4839 3.77412 11.488C3.72343 11.4921 3.67268 11.4807 3.62867 11.4552C3.58465 11.4297 3.54945 11.3914 3.52777 11.3454C3.50609 11.2994 3.49895 11.2478 3.50731 11.1977L4.2645 6.93359" stroke="#D59643" stroke-width="1.50069" stroke-linecap="round" stroke-linejoin="round"/>
<path d="M6.00467 7.4898C7.66194 7.4898 9.00543 6.14632 9.00543 4.48904C9.00543 2.83177 7.66194 1.48828 6.00467 1.48828C4.34739 1.48828 3.00391 2.83177 3.00391 4.48904C3.00391 6.14632 4.34739 7.4898 6.00467 7.4898Z" stroke="#D59643" stroke-width="1.50069" stroke-linecap="round" stroke-linejoin="round"/>
</g>
<defs>
<clipPath id="clip0_301_35623">
<rect width="12.003" height="12.003" fill="white" transform="translate(0.00390625 0.488281)"/>
</clipPath>
</defs>
</svg>
