<svg width="16" height="17" viewBox="0 0 16 17" fill="none" xmlns="http://www.w3.org/2000/svg">
<path d="M13.3359 3.16797H2.66927C1.93594 3.16797 1.33594 3.76797 1.33594 4.5013V12.5013C1.33594 13.2346 1.93594 13.8346 2.66927 13.8346H13.3359C14.0693 13.8346 14.6693 13.2346 14.6693 12.5013V4.5013C14.6693 3.76797 14.0693 3.16797 13.3359 3.16797ZM13.0693 6.0013L8.70927 8.72797C8.27594 9.0013 7.72927 9.0013 7.29594 8.72797L2.93594 6.0013C2.86909 5.96378 2.81055 5.91308 2.76386 5.85227C2.71718 5.79147 2.68331 5.72182 2.66432 5.64755C2.64533 5.57328 2.64161 5.49593 2.65338 5.42017C2.66514 5.34442 2.69216 5.27184 2.73279 5.20684C2.77342 5.14183 2.82682 5.08574 2.88976 5.04197C2.95269 4.99819 3.02385 4.96764 3.09893 4.95217C3.17402 4.93669 3.25146 4.93661 3.32657 4.95193C3.40169 4.96726 3.47291 4.99766 3.53594 5.0413L8.0026 7.83464L12.4693 5.0413C12.5323 4.99766 12.6035 4.96726 12.6786 4.95193C12.7537 4.93661 12.8312 4.93669 12.9063 4.95217C12.9814 4.96764 13.0525 4.99819 13.1155 5.04197C13.1784 5.08574 13.2318 5.14183 13.2724 5.20684C13.313 5.27184 13.3401 5.34442 13.3518 5.42017C13.3636 5.49593 13.3599 5.57328 13.3409 5.64755C13.3219 5.72182 13.288 5.79147 13.2413 5.85227C13.1947 5.91308 13.1361 5.96378 13.0693 6.0013Z" fill="#222222"/>
</svg>
