<svg width="19" height="15" viewBox="0 0 19 15" fill="none" xmlns="http://www.w3.org/2000/svg">
<path d="M1.73807 14.4192C1.2774 14.4192 0.89307 14.2652 0.58507 13.9572C0.27707 13.6492 0.122737 13.2645 0.12207 12.8032L0.12207 2.03519C0.12207 1.57452 0.276404 1.19019 0.58507 0.882189C0.893737 0.574189 1.27774 0.419856 1.73707 0.419189L16.5071 0.419189C16.9671 0.419189 17.3511 0.573523 17.6591 0.882189C17.9671 1.19086 18.1214 1.57519 18.1221 2.03519L18.1221 12.8042C18.1221 13.2642 17.9677 13.6485 17.6591 13.9572C17.3504 14.2659 16.9664 14.4199 16.5071 14.4192L1.73807 14.4192ZM17.1221 2.30419L9.57007 7.24819C9.4994 7.28486 9.42807 7.31586 9.35607 7.34119C9.2834 7.36586 9.2054 7.37819 9.12207 7.37819C9.03874 7.37819 8.96074 7.36586 8.88807 7.34119C8.8154 7.31652 8.74407 7.28552 8.67407 7.24819L1.12207 2.30319L1.12207 12.8032C1.12207 12.9832 1.17974 13.1309 1.29507 13.2462C1.4104 13.3615 1.55807 13.4192 1.73807 13.4192L16.5071 13.4192C16.6864 13.4192 16.8337 13.3615 16.9491 13.2462C17.0644 13.1309 17.1221 12.9832 17.1221 12.8032L17.1221 2.30419ZM9.12207 6.41919L16.8141 1.41919L1.43007 1.41919L9.12207 6.41919ZM1.12207 2.51519L1.12207 1.70419L1.12207 1.73819L1.12207 1.41919L1.12207 1.73919L1.12207 1.68719L1.12207 2.51519Z" fill="#1C5189"/>
</svg>
