<svg width="128" height="167" viewBox="0 0 128 167" fill="none" xmlns="http://www.w3.org/2000/svg">
<path d="M7.29883 0.881836H95.6357L126.292 29.1797V159.342C126.292 162.886 123.418 165.759 119.874 165.759H7.29883C3.75466 165.759 0.882001 162.886 0.881836 159.342V7.29883C0.882003 3.75466 3.75466 0.882001 7.29883 0.881836Z" fill="#F5F8FF" stroke="#3491D1" stroke-width="1.76281"/>
<path fill-rule="evenodd" clip-rule="evenodd" d="M15.5469 35.9921C15.5469 33.9765 17.1808 32.3425 19.1964 32.3425H89.8615C91.8771 32.3425 93.5111 33.9765 93.5111 35.9921C93.5111 38.0077 91.8771 39.6417 89.8615 39.6417H19.1964C17.1808 39.6417 15.5469 38.0077 15.5469 35.9921ZM15.5469 58.4873C15.5469 56.4717 17.1808 54.8378 19.1964 54.8378H110.377C112.393 54.8378 114.027 56.4717 114.027 58.4873C114.027 60.5029 112.393 62.1369 110.377 62.1369H19.1964C17.1808 62.1369 15.5469 60.5029 15.5469 58.4873ZM15.5469 80.9826C15.5469 78.967 17.1808 77.333 19.1964 77.333H44.2711C46.2867 77.333 47.9207 78.967 47.9207 80.9826C47.9207 82.9982 46.2867 84.6321 44.2711 84.6321H19.1964C17.1808 84.6321 15.5469 82.9982 15.5469 80.9826ZM56.5782 80.9826C56.5782 78.967 58.2122 77.333 60.2278 77.333H110.377C112.393 77.333 114.027 78.967 114.027 80.9826C114.027 82.9982 112.393 84.6321 110.377 84.6321H60.2278C58.2122 84.6321 56.5782 82.9982 56.5782 80.9826ZM15.5469 103.478C15.5469 101.462 17.1808 99.8283 19.1964 99.8283H85.3025C87.3181 99.8283 88.952 101.462 88.952 103.478C88.952 105.493 87.3181 107.127 85.3025 107.127H19.1964C17.1808 107.127 15.5469 105.493 15.5469 103.478ZM97.6095 103.478C97.6095 101.462 99.2435 99.8283 101.259 99.8283H110.377C112.393 99.8283 114.027 101.462 114.027 103.478C114.027 105.493 112.393 107.127 110.377 107.127H101.259C99.2435 107.127 97.6095 105.493 97.6095 103.478ZM15.5469 123.724C15.5469 121.708 17.1808 120.074 19.1964 120.074H103.539C105.554 120.074 107.188 121.708 107.188 123.724C107.188 125.739 105.554 127.373 103.539 127.373H19.1964C17.1808 127.373 15.5469 125.739 15.5469 123.724ZM15.5469 143.969C15.5469 141.954 17.1808 140.32 19.1964 140.32H80.7434C82.759 140.32 84.393 141.954 84.393 143.969C84.393 145.985 82.759 147.619 80.7434 147.619H19.1964C17.1808 147.619 15.5469 145.985 15.5469 143.969Z" fill="#3491D1"/>
<path d="M15.5469 35.9921C15.5469 33.9765 17.1808 32.3425 19.1964 32.3425H89.8615C91.8771 32.3425 93.5111 33.9765 93.5111 35.9921C93.5111 38.0077 91.8771 39.6417 89.8615 39.6417H19.1964C17.1808 39.6417 15.5469 38.0077 15.5469 35.9921Z" fill="#3491D1"/>
<path d="M95.9795 0L127.173 28.7939H103.967C99.5557 28.7939 95.9795 25.2177 95.9795 20.8062V0Z" fill="#3491D1"/>
</svg>
