<svg width="41" height="41" viewBox="0 0 41 41" fill="none" xmlns="http://www.w3.org/2000/svg">
<rect x="0.371155" y="0.108521" width="40.6289" height="40.6289" rx="3.38574" fill="#FDECEC"/>
<path d="M28.9404 27.5098C28.9404 27.8486 28.8651 28.1969 28.7051 28.5357C28.5451 28.8745 28.3381 29.1945 28.0652 29.4956C27.604 30.0039 27.0958 30.3709 26.5217 30.6062C25.957 30.8415 25.3453 30.9638 24.6865 30.9638C23.7265 30.9638 22.7006 30.7379 21.6183 30.2768C20.536 29.8156 19.4537 29.1945 18.3808 28.4133C17.2985 27.6228 16.2727 26.7475 15.2939 25.7781C14.3245 24.7993 13.4492 23.7735 12.6681 22.7006C11.8963 21.6277 11.2752 20.5548 10.8234 19.4913C10.3717 18.4184 10.1458 17.3926 10.1458 16.4138C10.1458 15.7738 10.2588 15.1621 10.4846 14.5974C10.7105 14.0233 11.0681 13.4962 11.5669 13.0257C12.1693 12.4327 12.8281 12.141 13.5245 12.141C13.788 12.141 14.0516 12.1975 14.2868 12.3104C14.5315 12.4233 14.748 12.5927 14.9174 12.8374L17.1009 15.915C17.2703 16.1503 17.3926 16.3667 17.4773 16.5738C17.562 16.7714 17.6091 16.969 17.6091 17.1479C17.6091 17.3737 17.5432 17.5996 17.4114 17.8161C17.2891 18.0325 17.1103 18.2584 16.8844 18.4843L16.1691 19.2278C16.0656 19.3313 16.0185 19.4537 16.0185 19.6042C16.0185 19.6795 16.028 19.7454 16.0468 19.8207C16.075 19.896 16.1032 19.9525 16.1221 20.0089C16.2915 20.3195 16.5832 20.7242 16.9973 21.2136C17.4208 21.703 17.8726 22.2018 18.362 22.7006C18.8702 23.1994 19.3596 23.6606 19.8584 24.0841C20.3478 24.4982 20.7525 24.7805 21.0725 24.9499C21.1195 24.9687 21.176 24.997 21.2419 25.0252C21.3172 25.0534 21.3925 25.0629 21.4772 25.0629C21.6372 25.0629 21.7595 25.0064 21.863 24.9029L22.5783 24.197C22.8136 23.9617 23.0395 23.7829 23.2559 23.67C23.4724 23.5382 23.6888 23.4723 23.9241 23.4723C24.1029 23.4723 24.2912 23.51 24.4982 23.5947C24.7053 23.6794 24.9217 23.8017 25.157 23.9617L28.2722 26.1734C28.5169 26.3428 28.6863 26.5404 28.7898 26.7757C28.8839 27.011 28.9404 27.2463 28.9404 27.5098Z" stroke="#E60914" stroke-width="1.43894" stroke-miterlimit="10"/>
<path d="M25.6742 18.7299C25.6742 18.1652 25.2319 17.2994 24.5731 16.5935C23.9707 15.9441 23.1708 15.4359 22.3802 15.4359" stroke="#E60914" stroke-width="1.43894" stroke-linecap="round" stroke-linejoin="round"/>
<path d="M28.9682 18.729C28.9682 15.0868 26.0224 12.141 22.3802 12.141" stroke="#E60914" stroke-width="1.43894" stroke-linecap="round" stroke-linejoin="round"/>
</svg>
