<svg width="48" height="48" viewBox="0 0 48 48" fill="none" xmlns="http://www.w3.org/2000/svg">
<path d="M0 12.2462C0 5.67156 5.32977 0.341797 11.9044 0.341797H35.7132C42.2878 0.341797 47.6175 5.67157 47.6175 12.2462V36.0549C47.6175 42.6296 42.2878 47.9593 35.7131 47.9593H11.9044C5.32976 47.9593 0 42.6295 0 36.0549V12.2462Z" fill="#3491D1" fill-opacity="0.1"/>
<path d="M29.5649 31.2933L27.7792 23.1586L31.2513 19.6865C32.7394 18.1985 33.2354 16.2144 32.7394 15.2224C31.7474 14.7264 29.7633 15.2224 28.2752 16.7104L24.8031 20.1825L16.6685 18.3969C16.1725 18.2977 15.7756 18.4961 15.5772 18.8929L15.2796 19.3889C15.0812 19.8849 15.1804 20.3809 15.5772 20.6786L20.835 24.1507L18.8509 27.1268H15.8748L14.8828 28.1188L17.8589 30.1029L19.843 33.079L20.835 32.0869V29.1108L23.8111 27.1268L27.2832 32.3845C27.5808 32.7813 28.0768 32.8805 28.5728 32.6821L29.0689 32.4837C29.4657 32.1861 29.6641 31.7893 29.5649 31.2933Z" stroke="#3491D1" stroke-width="1.98406" stroke-linecap="round" stroke-linejoin="round"/>
</svg>
