<svg width="48" height="46" viewBox="0 0 48 46" fill="none" xmlns="http://www.w3.org/2000/svg">
<path d="M0 11.9779C0 5.40325 5.32977 0.0734863 11.9044 0.0734863H35.7132C42.2878 0.0734863 47.6175 5.40326 47.6175 11.9779V33.1607C47.6175 39.7353 42.2878 45.065 35.7131 45.065H11.9044C5.32976 45.065 0 39.7353 0 33.1607V11.9779Z" fill="#3491D1" fill-opacity="0.1"/>
<g clip-path="url(#clip0_1_21407)">
<path d="M22.9103 22.9862V19.5139H24.8945V22.9862H28.3667V24.9704H24.8945L24.894 28.4427H22.9098V24.9704H19.4375V22.9862H22.9103Z" fill="#3491D1"/>
<path fill-rule="evenodd" clip-rule="evenodd" d="M18.8558 30.4226C20.0701 31.5194 21.4005 32.4251 22.9025 33.1394C23.7071 33.5214 24.6615 33.4867 25.4328 33.0467C26.7339 32.3046 27.8664 31.4112 28.9612 30.4226C31.2822 28.3263 32.6349 25.4418 32.7236 22.3996L32.8273 18.8524C32.8392 18.4397 32.8278 17.53 32.8278 17.53C32.3066 17.4478 31.7837 17.3774 31.2593 17.3187C29.6373 17.1242 28.0222 16.9313 26.605 16.0647L25.5945 15.4471C25.1654 15.1874 24.6733 15.05 24.1716 15.05C23.67 15.05 23.1779 15.1874 22.7487 15.4471L21.781 16.0389C20.1604 17.029 18.1857 17.2165 16.2744 17.398C15.8414 17.4392 15.4113 17.4804 14.9897 17.53C14.9897 17.53 14.9778 18.4452 14.9897 18.8638L15.0933 22.3996C15.1821 25.4418 16.5348 28.3263 18.8558 30.4226ZM15.9768 18.4234C15.9768 18.5821 15.9783 18.7284 15.9817 18.8351L16.0849 22.3709C16.1658 25.1338 17.3945 27.7658 19.5205 29.6865C20.6674 30.7217 21.9179 31.5724 23.3286 32.2431C23.5827 32.3627 23.8616 32.4199 24.1422 32.4098C24.4228 32.3997 24.697 32.3226 24.9417 32.185C26.1595 31.4906 27.233 30.6468 28.2965 29.6865C30.4225 27.7658 31.6512 25.1343 31.7321 22.3709L31.8357 18.8237C31.8387 18.7125 31.8407 18.5563 31.8407 18.3896C31.6085 18.3602 31.3721 18.3311 31.1314 18.3023L31.1046 18.2993C30.5535 18.2375 30.0041 18.1622 29.4567 18.0736C28.3436 17.8852 27.1789 17.5781 26.0876 16.9114L25.0772 16.2934C24.8038 16.1288 24.4907 16.0419 24.1716 16.0419C23.8526 16.0419 23.5395 16.1288 23.2661 16.2934L22.2983 16.8851C21.1475 17.588 19.8777 17.9214 18.6539 18.1183C17.895 18.2403 17.0775 18.3182 16.3121 18.3916L15.9768 18.4234Z" fill="#3491D1"/>
</g>
<defs>
<clipPath id="clip0_1_21407">
<rect width="23.8088" height="23.8088" fill="white" transform="translate(11.9062 11.9788)"/>
</clipPath>
</defs>
</svg>
