<svg width="66" height="66" viewBox="0 0 66 66" fill="none" xmlns="http://www.w3.org/2000/svg">
<path d="M0 12.3485C0 5.52861 5.5286 0 12.3485 0H53.5101C60.3299 0 65.8586 5.5286 65.8586 12.3485V53.5101C65.8586 60.3299 60.33 65.8586 53.5101 65.8586H12.3485C5.52861 65.8586 0 60.33 0 53.5101V12.3485Z" fill="#3491D1" fill-opacity="0.1"/>
<path d="M33.119 46.7184C40.6966 46.7184 46.8395 40.5755 46.8395 32.9979C46.8395 25.4202 40.6966 19.2773 33.119 19.2773C25.5413 19.2773 19.3984 25.4202 19.3984 32.9979C19.3984 40.5755 25.5413 46.7184 33.119 46.7184Z" stroke="#3491D1" stroke-width="2.05808" stroke-linecap="round" stroke-linejoin="round"/>
<path d="M33.121 19.2773C29.5979 22.9766 27.6328 27.8894 27.6328 32.9979C27.6328 38.1064 29.5979 43.0191 33.121 46.7184C36.6441 43.0191 38.6092 38.1064 38.6092 32.9979C38.6092 27.8894 36.6441 22.9766 33.121 19.2773Z" stroke="#3491D1" stroke-width="2.05808" stroke-linecap="round" stroke-linejoin="round"/>
<path d="M19.3984 32.9971H46.8395" stroke="#3491D1" stroke-width="2.05808" stroke-linecap="round" stroke-linejoin="round"/>
</svg>
