<svg width="66" height="66" viewBox="0 0 66 66" fill="none" xmlns="http://www.w3.org/2000/svg">
<path d="M0 12.3485C0 5.52861 5.5286 0 12.3485 0H53.5101C60.3299 0 65.8586 5.5286 65.8586 12.3485V53.5101C65.8586 60.3299 60.33 65.8586 53.5101 65.8586H12.3485C5.52861 65.8586 0 60.33 0 53.5101V12.3485Z" fill="#3491D1" fill-opacity="0.1"/>
<path d="M32.9989 38.7139C32.5514 38.7141 32.1138 38.5829 31.7402 38.3367C31.3666 38.0905 31.0735 37.74 30.8972 37.3288C30.5284 37.2417 30.1654 37.1317 29.8103 36.9996L29.7909 36.9928C28.7481 36.6014 27.7856 36.0227 26.9509 35.2853C25.8325 34.2987 24.9724 33.0535 24.4456 31.6582C23.9189 30.2629 23.7414 28.76 23.9288 27.2804C24.1162 25.8008 24.6626 24.3896 25.5205 23.1696C26.3784 21.9497 27.5218 20.9582 28.8508 20.2815C30.1798 19.6048 31.6542 19.2635 33.1454 19.2873C34.6366 19.3111 36.0993 19.6994 37.4061 20.4183C38.7128 21.1371 39.8238 22.1647 40.6423 23.4115C41.4607 24.6582 41.9618 26.0862 42.1017 27.571C42.1463 28.043 41.7589 28.4282 41.2846 28.4282C40.8115 28.4282 40.4332 28.043 40.3783 27.5722C40.2272 26.2731 39.7358 25.0369 38.9538 23.9886C38.1719 22.9403 37.1269 22.117 35.9248 21.602C34.7226 21.087 33.4057 20.8985 32.1074 21.0555C30.809 21.2126 29.5751 21.7097 28.5304 22.4965C27.4857 23.2833 26.6672 24.332 26.1577 25.5365C25.6483 26.741 25.4658 28.0587 25.6288 29.3564C25.7919 30.654 26.2946 31.8856 27.0862 32.9267C27.8779 33.9678 28.9303 34.7814 30.1372 35.2853L30.1829 35.3048C30.4115 35.3985 30.6461 35.4811 30.8869 35.5528C31.107 35.0163 31.5228 34.5836 32.0501 34.3423C32.5773 34.1009 33.1766 34.069 33.7265 34.2529C34.2764 34.4369 34.7358 34.8229 35.0118 35.3329C35.2877 35.8429 35.3595 36.4387 35.2126 36.9996C35.0859 37.4904 34.7997 37.9251 34.3989 38.2354C33.9982 38.5457 33.5057 38.714 32.9989 38.7139ZM24.9989 36.9996H26.3349C25.6959 36.5016 25.1141 35.9343 24.6 35.3082C23.7654 35.4059 22.9958 35.8068 22.4372 36.4346C21.8787 37.0625 21.5702 37.8736 21.5703 38.7139V39.531C21.5703 43.7802 26.3817 46.7139 32.9989 46.7139C39.616 46.7139 44.4275 43.619 44.4275 39.531V38.7139C44.4275 37.8046 44.0662 36.9325 43.4232 36.2895C42.7803 35.6466 41.9082 35.2853 40.9989 35.2853H36.8332C36.9988 35.8409 37.0417 36.4258 36.9589 36.9996H40.9989L41.1646 37.0076C41.5886 37.0488 41.982 37.2463 42.2683 37.5618C42.5546 37.8772 42.7132 38.2879 42.7132 38.7139V39.531L42.7075 39.715C42.5475 42.595 38.6286 44.9996 32.9989 44.9996C27.1577 44.9996 23.2846 42.587 23.2846 39.531V38.7139L23.2926 38.5482C23.3338 38.1242 23.5313 37.7307 23.8468 37.4445C24.1622 37.1582 24.5729 36.9996 24.9989 36.9996ZM38.7132 28.4282C38.7133 29.4634 38.4323 30.4791 37.9001 31.367C37.3679 32.2549 36.6045 32.9816 35.6915 33.4693C34.9548 32.7992 33.9947 32.428 32.9989 32.4282C33.5242 32.4282 34.0443 32.3247 34.5296 32.1237C35.0149 31.9227 35.4559 31.628 35.8273 31.2566C36.1987 30.8852 36.4934 30.4442 36.6944 29.9589C36.8954 29.4736 36.9989 28.9535 36.9989 28.4282C36.9989 27.9029 36.8954 27.3828 36.6944 26.8975C36.4934 26.4121 36.1987 25.9712 35.8273 25.5998C35.4559 25.2283 35.0149 24.9337 34.5296 24.7327C34.0443 24.5316 33.5242 24.4282 32.9989 24.4282C31.938 24.4282 30.9206 24.8496 30.1705 25.5998C29.4203 26.3499 28.9989 27.3673 28.9989 28.4282C28.9989 29.4891 29.4203 30.5065 30.1705 31.2566C30.9206 32.0068 31.938 32.4282 32.9989 32.4282C31.9612 32.4282 31.0172 32.8236 30.3075 33.4705C29.3949 32.9831 28.6317 32.2571 28.0995 31.3699C27.6463 30.6149 27.3737 29.7654 27.303 28.8877C27.2324 28.0099 27.3655 27.1277 27.692 26.31C28.0186 25.4922 28.5297 24.7609 29.1855 24.1733C29.8413 23.5857 30.6241 23.1575 31.4726 22.9223C32.3212 22.6872 33.2127 22.6513 34.0774 22.8175C34.9421 22.9837 35.7568 23.3475 36.4577 23.8805C37.1586 24.4135 37.7269 25.1012 38.1182 25.8901C38.5094 26.679 38.713 27.5476 38.7132 28.4282Z" fill="#3491D1"/>
</svg>
