<svg width="66" height="66" viewBox="0 0 66 66" fill="none" xmlns="http://www.w3.org/2000/svg">
<path d="M0 12.3485C0 5.52861 5.5286 0 12.3485 0H53.5101C60.3299 0 65.8586 5.5286 65.8586 12.3485V53.5101C65.8586 60.3299 60.33 65.8586 53.5101 65.8586H12.3485C5.52861 65.8586 0 60.33 0 53.5101V12.3485Z" fill="#3491D1" fill-opacity="0.1"/>
<path d="M37.1786 19.2773H28.9463C28.1885 19.2773 27.5742 19.8916 27.5742 20.6494V23.3935C27.5742 24.1513 28.1885 24.7656 28.9463 24.7656H37.1786C37.9364 24.7656 38.5506 24.1513 38.5506 23.3935V20.6494C38.5506 19.8916 37.9364 19.2773 37.1786 19.2773Z" stroke="#3491D1" stroke-width="2.05808" stroke-linecap="round" stroke-linejoin="round"/>
<path d="M38.5506 22.0205H41.2947C42.0225 22.0205 42.7204 22.3096 43.2351 22.8242C43.7497 23.3389 44.0388 24.0368 44.0388 24.7646V43.9734C44.0388 44.7011 43.7497 45.3991 43.2351 45.9137C42.7204 46.4284 42.0225 46.7175 41.2947 46.7175H24.83C24.1023 46.7175 23.4043 46.4284 22.8897 45.9137C22.375 45.3991 22.0859 44.7011 22.0859 43.9734V24.7646C22.0859 24.0368 22.375 23.3389 22.8897 22.8242C23.4043 22.3096 24.1023 22.0205 24.83 22.0205H27.5742" stroke="#3491D1" stroke-width="2.05808" stroke-linecap="round" stroke-linejoin="round"/>
<path d="M28.9492 35.7412L31.6933 38.4853L37.1815 32.9971" stroke="#3491D1" stroke-width="2.05808" stroke-linecap="round" stroke-linejoin="round"/>
</svg>
