<svg width="24" height="24" viewBox="0 0 24 24" fill="none" xmlns="http://www.w3.org/2000/svg">
<path d="M0 6.75C0 3.02208 3.02208 0 6.75 0H17.25C20.9779 0 24 3.02208 24 6.75V17.25C24 20.9779 20.9779 24 17.25 24H6.75C3.02208 24 0 20.9779 0 17.25V6.75Z" fill="#3491D1" fill-opacity="0.1"/>
<g clip-path="url(#clip0_309_39935)">
<g clip-path="url(#clip1_309_39935)">
<path d="M14.5707 9.07145H7.57034C7.43772 9.07145 7.31054 9.01876 7.21677 8.92499C7.12299 8.83122 7.07031 8.70403 7.07031 8.57142V6.57132C7.07031 6.4387 7.12299 6.31152 7.21677 6.21774C7.31054 6.12397 7.43772 6.07129 7.57034 6.07129H14.5707C14.7033 6.07129 14.8305 6.12397 14.9243 6.21774C15.018 6.31152 15.0707 6.4387 15.0707 6.57132V8.57142C15.0707 8.70403 15.018 8.83122 14.9243 8.92499C14.8305 9.01876 14.7033 9.07145 14.5707 9.07145ZM8.07036 8.07139H14.0707V7.04134H8.07036V8.07139Z" fill="#3491D1"/>
<path d="M14.5707 10.1113H7.57034C7.43772 10.1113 7.31054 10.164 7.21677 10.2578C7.12299 10.3516 7.07031 10.4787 7.07031 10.6114V12.5715C7.07031 12.7041 7.12299 12.8313 7.21677 12.925C7.31054 13.0188 7.43772 13.0715 7.57034 13.0715H13.2506L15.0707 11.2214V10.6114C15.0707 10.4787 15.018 10.3516 14.9243 10.2578C14.8305 10.164 14.7033 10.1113 14.5707 10.1113ZM14.0707 12.0714H8.07036V11.0714H14.0707V12.0714Z" fill="#3491D1"/>
<path d="M9.60055 18.828V18.798L9.76056 18.103H6.07036V5.07232H16.0709V10.1976L17.0709 9.25254V4.57229C17.0709 4.43968 17.0183 4.31249 16.9245 4.21872C16.8307 4.12495 16.7035 4.07227 16.5709 4.07227H5.57034C5.43772 4.07227 5.31054 4.12495 5.21677 4.21872C5.12299 4.31249 5.07031 4.43968 5.07031 4.57229V18.573C5.07031 18.7056 5.12299 18.8328 5.21677 18.9266C5.31054 19.0204 5.43772 19.073 5.57034 19.073H9.57055C9.5746 18.9908 9.58462 18.9089 9.60055 18.828Z" fill="#3491D1"/>
<path d="M15.0697 12.6572L14.6797 13.0522C14.7765 13.0323 14.8651 12.9841 14.9346 12.9138C15.004 12.8435 15.051 12.7542 15.0697 12.6572Z" fill="#3491D1"/>
<path d="M7.07031 16.5424C7.07031 16.675 7.12299 16.8022 7.21677 16.896C7.31054 16.9897 7.43772 17.0424 7.57034 17.0424H9.99046L10.1405 16.3924L10.2055 16.1174V16.0924H8.07036V15.0723H11.2405L12.2406 14.0723H7.57034C7.43772 14.0723 7.31054 14.1249 7.21677 14.2187C7.12299 14.3125 7.07031 14.4397 7.07031 14.5723V16.5424Z" fill="#3491D1"/>
<path d="M20.8164 11.407L19.1314 9.72192C19.0566 9.64693 18.9677 9.58744 18.8699 9.54684C18.7721 9.50625 18.6672 9.48535 18.5613 9.48535C18.4554 9.48535 18.3506 9.50625 18.2527 9.54684C18.1549 9.58744 18.0661 9.64693 17.9913 9.72192L11.1359 16.6173L10.5709 19.0224C10.5498 19.1262 10.5493 19.2331 10.5695 19.337C10.5897 19.441 10.6303 19.5399 10.6888 19.6282C10.7473 19.7164 10.8227 19.7922 10.9106 19.8513C10.9985 19.9104 11.0971 19.9516 11.2009 19.9725C11.2525 19.9775 11.3044 19.9775 11.356 19.9725C11.4173 19.982 11.4797 19.982 11.541 19.9725L13.9661 19.4374L20.8164 12.5721C20.8913 12.4977 20.9507 12.4093 20.9912 12.3119C21.0317 12.2145 21.0526 12.11 21.0526 12.0045C21.0526 11.899 21.0317 11.7946 20.9912 11.6972C20.9507 11.5998 20.8913 11.5114 20.8164 11.437V11.407ZM13.4561 18.5274L11.626 18.9324L12.071 17.1173L17.2113 11.922L18.6213 13.3321L13.4561 18.5274ZM19.1864 12.7671L17.7763 11.357L18.5713 10.572L19.9914 11.992L19.1864 12.7671Z" fill="#3491D1"/>
</g>
</g>
<defs>
<clipPath id="clip0_309_39935">
<rect width="18" height="18" fill="white" transform="translate(4 3)"/>
</clipPath>
<clipPath id="clip1_309_39935">
<rect width="18.0009" height="18.0009" fill="white" transform="translate(4.07031 3.07129)"/>
</clipPath>
</defs>
</svg>
