<svg width="49" height="48" viewBox="0 0 49 48" fill="none" xmlns="http://www.w3.org/2000/svg">
<path d="M0.804688 12.0548C0.804688 5.48015 6.13446 0.150391 12.7091 0.150391H36.5178C43.0924 0.150391 48.4222 5.48016 48.4222 12.0548V35.8635C48.4222 42.4381 43.0924 47.7679 36.5178 47.7679H12.7091C6.13445 47.7679 0.804688 42.4381 0.804688 35.8635V12.0548Z" fill="#3491D1" fill-opacity="0.1"/>
<path d="M30.5681 14.0391H18.6638C17.568 14.0391 16.6797 14.9274 16.6797 16.0231V31.8956C16.6797 32.9914 17.568 33.8797 18.6638 33.8797H30.5681C31.6639 33.8797 32.5522 32.9914 32.5522 31.8956V16.0231C32.5522 14.9274 31.6639 14.0391 30.5681 14.0391Z" stroke="#3491D1" stroke-width="1.4" stroke-linecap="round" stroke-linejoin="round"/>
<path d="M21.6406 33.8802V29.9121H27.5928V33.8802" stroke="#3491D1" stroke-width="1.4" stroke-linecap="round" stroke-linejoin="round"/>
<path d="M20.6484 18.0068H20.6584" stroke="#3491D1" stroke-width="1.98406" stroke-linecap="round" stroke-linejoin="round"/>
<path d="M28.582 18.0068H28.592" stroke="#3491D1" stroke-width="1.98406" stroke-linecap="round" stroke-linejoin="round"/>
<path d="M24.6172 18.0068H24.6272" stroke="#3491D1" stroke-width="1.98406" stroke-linecap="round" stroke-linejoin="round"/>
<path d="M24.6172 21.9746H24.6272" stroke="#3491D1" stroke-width="1.98406" stroke-linecap="round" stroke-linejoin="round"/>
<path d="M24.6172 25.9424H24.6272" stroke="#3491D1" stroke-width="1.98406" stroke-linecap="round" stroke-linejoin="round"/>
<path d="M28.582 21.9746H28.592" stroke="#3491D1" stroke-width="1.98406" stroke-linecap="round" stroke-linejoin="round"/>
<path d="M28.582 25.9424H28.592" stroke="#3491D1" stroke-width="1.98406" stroke-linecap="round" stroke-linejoin="round"/>
<path d="M20.6484 21.9744H20.6584" stroke="#3491D1" stroke-width="1.98406" stroke-linecap="round" stroke-linejoin="round"/>
<path d="M20.6484 25.9426H20.6584" stroke="#3491D1" stroke-width="1.98406" stroke-linecap="round" stroke-linejoin="round"/>
</svg>
