<svg width="48" height="48" viewBox="0 0 48 48" fill="none" xmlns="http://www.w3.org/2000/svg">
<path d="M0 12.2462C0 5.67156 5.32977 0.341797 11.9044 0.341797H35.7132C42.2878 0.341797 47.6175 5.67157 47.6175 12.2462V36.0549C47.6175 42.6296 42.2878 47.9593 35.7131 47.9593H11.9044C5.32976 47.9593 0 42.6295 0 36.0549V12.2462Z" fill="#3491D1" fill-opacity="0.1"/>
<g clip-path="url(#clip0_1_21448)">
<g clip-path="url(#clip1_1_21448)">
<path d="M25.8896 20.2789H16.6301C16.4547 20.2789 16.2865 20.2092 16.1625 20.0852C16.0384 19.9611 15.9688 19.7929 15.9688 19.6175V16.9719C15.9688 16.7965 16.0384 16.6283 16.1625 16.5043C16.2865 16.3802 16.4547 16.3105 16.6301 16.3105H25.8896C26.065 16.3105 26.2332 16.3802 26.3573 16.5043C26.4813 16.6283 26.551 16.7965 26.551 16.9719V19.6175C26.551 19.7929 26.4813 19.9611 26.3573 20.0852C26.2332 20.2092 26.065 20.2789 25.8896 20.2789ZM17.2915 18.9561H25.2282V17.5936H17.2915V18.9561Z" fill="#3491D1"/>
<path d="M25.8896 21.6543H16.6301C16.4547 21.6543 16.2865 21.724 16.1625 21.848C16.0384 21.972 15.9688 22.1403 15.9688 22.3157V24.9083C15.9688 25.0837 16.0384 25.252 16.1625 25.376C16.2865 25.5 16.4547 25.5697 16.6301 25.5697H24.1435L26.551 23.1226V22.3157C26.551 22.1403 26.4813 21.972 26.3573 21.848C26.2332 21.724 26.065 21.6543 25.8896 21.6543ZM25.2282 24.2469H17.2915V22.9242H25.2282V24.2469Z" fill="#3491D1"/>
<path d="M19.3164 33.1826V33.1429L19.528 32.2236H14.647V14.9878H27.8748V21.7671L29.1976 20.517V14.3264C29.1976 14.151 29.1279 13.9828 29.0038 13.8588C28.8798 13.7347 28.7116 13.665 28.5362 13.665H13.9856C13.8102 13.665 13.642 13.7347 13.5179 13.8588C13.3939 13.9828 13.3242 14.151 13.3242 14.3264V32.8453C13.3242 33.0207 13.3939 33.189 13.5179 33.313C13.642 33.437 13.8102 33.5067 13.9856 33.5067H19.2767C19.2821 33.3979 19.2953 33.2895 19.3164 33.1826Z" fill="#3491D1"/>
<path d="M26.551 25.0205L26.0352 25.543C26.1631 25.5166 26.2805 25.4529 26.3723 25.3599C26.4641 25.2669 26.5263 25.1488 26.551 25.0205Z" fill="#3491D1"/>
<path d="M15.9688 30.1598C15.9688 30.3353 16.0384 30.5035 16.1625 30.6275C16.2865 30.7515 16.4547 30.8212 16.6301 30.8212H19.8313L20.0297 29.9614L20.1157 29.5977V29.5646H17.2915V28.2154H21.4847L22.8075 26.8926H16.6301C16.4547 26.8926 16.2865 26.9623 16.1625 27.0863C16.0384 27.2103 15.9688 27.3786 15.9688 27.554V30.1598Z" fill="#3491D1"/>
<path d="M34.1514 23.367L31.9226 21.1381C31.8237 21.0389 31.7061 20.9602 31.5768 20.9065C31.4474 20.8528 31.3087 20.8252 31.1686 20.8252C31.0285 20.8252 30.8898 20.8528 30.7604 20.9065C30.631 20.9602 30.5135 21.0389 30.4146 21.1381L21.347 30.2587L20.5996 33.4399C20.5716 33.5772 20.571 33.7186 20.5977 33.8561C20.6245 33.9936 20.6781 34.1244 20.7555 34.2412C20.8329 34.3579 20.9326 34.4582 21.0489 34.5364C21.1651 34.6145 21.2956 34.669 21.4329 34.6966C21.5011 34.7032 21.5698 34.7032 21.638 34.6966C21.719 34.7092 21.8016 34.7092 21.8827 34.6966L25.0904 33.9889L34.1514 24.908C34.2504 24.8097 34.329 24.6927 34.3826 24.5639C34.4362 24.4351 34.4638 24.2969 34.4638 24.1574C34.4638 24.0178 34.4362 23.8796 34.3826 23.7508C34.329 23.622 34.2504 23.505 34.1514 23.4067V23.367ZM24.4158 32.7852L21.9951 33.3209L22.5838 30.9201L29.3828 24.0482L31.248 25.9133L24.4158 32.7852ZM31.9953 25.166L30.1302 23.3009L31.1818 22.2625L33.0602 24.1408L31.9953 25.166Z" fill="#3491D1"/>
</g>
</g>
<defs>
<clipPath id="clip0_1_21448">
<rect width="23.8088" height="23.8088" fill="white" transform="translate(11.9062 12.2471)"/>
</clipPath>
<clipPath id="clip1_1_21448">
<rect width="23.81" height="23.81" fill="white" transform="translate(12 12.3418)"/>
</clipPath>
</defs>
</svg>
