<svg width="419" height="202" viewBox="0 0 419 202" fill="none" xmlns="http://www.w3.org/2000/svg">
<path d="M418.999 147.698C419.023 149.349 418.676 150.989 417.978 152.521C417.28 154.053 416.246 155.447 414.935 156.623C413.624 157.798 412.063 158.731 410.341 159.368C408.619 160.005 406.772 160.333 404.906 160.333H304.226C305.689 162.7 306.246 165.424 305.814 168.095C305.382 170.766 303.984 173.242 301.83 175.15C301.008 175.875 300.09 176.51 299.097 177.042H317.694C325.473 177.042 332.058 182.478 332.158 189.358C332.181 191.01 331.833 192.65 331.136 194.182C330.438 195.714 329.404 197.108 328.093 198.284C326.782 199.46 325.221 200.394 323.5 201.032C321.778 201.67 319.931 201.999 318.065 202H225.616C222.531 202 219.531 201.103 217.076 199.448C214.622 197.793 212.848 195.471 212.028 192.838C211.207 190.205 211.385 187.406 212.534 184.871C213.683 182.336 215.74 180.205 218.388 178.804H163.007C155.228 178.804 148.643 173.368 148.543 166.488C148.511 164.26 149.153 162.066 150.403 160.133C151.652 158.199 153.463 156.597 155.648 155.493C153.359 154.441 151.44 152.852 150.101 150.9C148.762 148.948 148.054 146.708 148.055 144.424V129.139C148.053 127.187 148.568 125.262 149.56 123.52C150.553 121.777 151.993 120.265 153.767 119.106H54.2466C46.4754 119.106 39.8978 113.683 39.7833 106.81C39.7554 105.156 40.0993 103.513 40.7951 101.978C41.4908 100.443 42.5244 99.0455 43.8358 97.8672C45.1472 96.6888 46.7102 95.7531 48.4339 95.1145C50.1575 94.4759 52.0074 94.1472 53.8759 94.1473H60.9124C63.7996 94.1465 66.5683 93.1307 68.6099 91.3232C70.6514 89.5158 71.7988 87.0646 71.7998 84.5085V84.5018C71.7988 81.9463 70.652 79.4956 68.6112 77.6883C66.5704 75.8809 63.8027 74.8647 60.9161 74.863H14.0926C10.355 74.863 6.77049 73.5485 4.12762 71.2087C1.48475 68.8689 0 65.6955 0 62.3866C0 59.0777 1.48475 55.9042 4.12762 53.5645C6.77049 51.2247 10.355 49.9102 14.0926 49.9102H81.7845C83.6351 49.9106 85.4678 49.5884 87.1777 48.9618C88.8877 48.3352 90.4416 47.4166 91.7505 46.2583C93.0595 45.1001 94.0979 43.725 94.8066 42.2114C95.5153 40.6979 95.8803 39.0756 95.8808 37.4372C95.8813 35.7987 95.5173 34.1763 94.8095 32.6624C94.1017 31.1485 93.0641 29.7729 91.7558 28.614C90.4476 27.4552 88.8943 26.5358 87.1847 25.9084C85.4751 25.281 83.6427 24.9579 81.792 24.9574H62.4625C54.6755 24.9574 48.0911 19.5079 48.0067 12.6145C47.9861 10.9645 48.3354 9.32724 49.0343 7.79756C49.7333 6.26788 50.7681 4.87615 52.0788 3.70294C53.3895 2.52973 54.95 1.59836 56.67 0.962745C58.3901 0.32713 60.2354 -0.000101077 62.0993 2.34197e-08H190.679C198.252 2.34197e-08 204.752 5.15868 205.119 11.8626C205.243 14.0742 204.702 16.2754 203.55 18.2409H369.369C373.106 18.2409 376.691 19.5553 379.334 21.8951C381.977 24.2349 383.461 27.4083 383.461 30.7173C383.461 34.0262 381.977 37.1996 379.334 39.5394C376.691 41.8792 373.106 43.1936 369.369 43.1936H307.949C307.947 45.8788 306.74 48.4533 304.596 50.3519C302.451 52.2506 299.543 53.3184 296.51 53.3209H227.278C229.33 55.0356 230.753 57.2562 231.362 59.6952C231.972 62.1341 231.741 64.6789 230.698 67.0001C229.655 69.3212 227.849 71.3116 225.514 72.7135C223.179 74.1155 220.422 74.8643 217.6 74.863H198.244C197.483 74.8624 196.728 74.9948 196.024 75.2524C195.321 75.51 194.681 75.8879 194.142 76.3644C193.603 76.8409 193.176 77.4067 192.884 78.0295C192.592 78.6524 192.442 79.32 192.441 79.9943V80.001C192.442 80.6753 192.592 81.3429 192.884 81.9657C193.176 82.5886 193.603 83.1544 194.142 83.6309C194.681 84.1074 195.321 84.4853 196.024 84.7429C196.728 85.0005 197.483 85.1328 198.244 85.1323H355.38C359.118 85.1323 362.702 86.4468 365.345 88.7866C367.988 91.1263 369.473 94.2998 369.473 97.6087C369.473 100.918 367.988 104.091 365.345 106.431C362.702 108.771 359.118 110.085 355.38 110.085H314.739C316.8 111.201 318.503 112.767 319.684 114.633C320.865 116.499 321.485 118.602 321.485 120.741V124.301C321.486 126.591 320.775 128.836 319.43 130.791C318.085 132.746 316.157 134.335 313.859 135.384H404.535C412.314 135.384 418.899 140.82 418.999 147.7" fill="#3491D1" fill-opacity="0.3"/>
</svg>
