<svg width="13" height="13" viewBox="0 0 13 13" fill="none" xmlns="http://www.w3.org/2000/svg">
<path d="M2.534 5.453C3.542 7.434 5.166 9.051 7.147 10.066L8.687 8.526C8.876 8.337 9.156 8.274 9.401 8.358C10.185 8.617 11.032 8.757 11.9 8.757C12.285 8.757 12.6 9.072 12.6 9.457V11.9C12.6 12.285 12.285 12.6 11.9 12.6C5.327 12.6 0 7.273 0 0.7C0 0.315 0.315 0 0.7 0H3.15C3.535 0 3.85 0.315 3.85 0.7C3.85 1.575 3.99 2.415 4.249 3.199C4.326 3.444 4.27 3.717 4.074 3.913L2.534 5.453Z" fill="#FAFAFA"/>
</svg>
