<svg width="13" height="13" viewBox="0 0 13 13" fill="none" xmlns="http://www.w3.org/2000/svg">
<g clip-path="url(#clip0_301_35629)">
<path d="M6.42314 11.4908C9.18527 11.4908 11.4244 9.25167 11.4244 6.48955C11.4244 3.72742 9.18527 1.48828 6.42314 1.48828C3.66102 1.48828 1.42188 3.72742 1.42188 6.48955C1.42188 9.25167 3.66102 11.4908 6.42314 11.4908Z" stroke="#D59643" stroke-width="1.50069" stroke-linecap="round" stroke-linejoin="round"/>
<path d="M6.42238 1.48828C5.13817 2.8367 4.42188 4.62745 4.42188 6.48955C4.42188 8.35165 5.13817 10.1424 6.42238 11.4908C7.70659 10.1424 8.42289 8.35165 8.42289 6.48955C8.42289 4.62745 7.70659 2.8367 6.42238 1.48828Z" stroke="#D59643" stroke-width="1.50069" stroke-linecap="round" stroke-linejoin="round"/>
<path d="M1.42188 6.48828H11.4244" stroke="#D59643" stroke-width="1.50069" stroke-linecap="round" stroke-linejoin="round"/>
</g>
<defs>
<clipPath id="clip0_301_35629">
<rect width="12.003" height="12.003" fill="white" transform="translate(0.421875 0.488281)"/>
</clipPath>
</defs>
</svg>
