<svg width="24" height="24" viewBox="0 0 24 24" fill="none" xmlns="http://www.w3.org/2000/svg">
<path d="M0 6.75C0 3.02208 3.02208 0 6.75 0H17.25C20.9779 0 24 3.02208 24 6.75V17.25C24 20.9779 20.9779 24 17.25 24H6.75C3.02208 24 0 20.9779 0 17.25V6.75Z" fill="#3491D1" fill-opacity="0.1"/>
<path d="M14.75 18.75V12.75C14.75 12.5511 14.671 12.3603 14.5303 12.2197C14.3897 12.079 14.1989 12 14 12H11C10.8011 12 10.6103 12.079 10.4697 12.2197C10.329 12.3603 10.25 12.5511 10.25 12.75V18.75" stroke="#3491D1" stroke-linecap="round" stroke-linejoin="round"/>
<path d="M5.75 10.5006C5.74995 10.2824 5.7975 10.0668 5.88934 9.86887C5.98118 9.67094 6.1151 9.49543 6.28175 9.35459L11.5317 4.85534C11.8025 4.62652 12.1455 4.50098 12.5 4.50098C12.8545 4.50098 13.1975 4.62652 13.4683 4.85534L18.7183 9.35459C18.8849 9.49543 19.0188 9.67094 19.1107 9.86887C19.2025 10.0668 19.2501 10.2824 19.25 10.5006V17.2506C19.25 17.6484 19.092 18.0299 18.8107 18.3112C18.5294 18.5926 18.1478 18.7506 17.75 18.7506H7.25C6.85218 18.7506 6.47064 18.5926 6.18934 18.3112C5.90804 18.0299 5.75 17.6484 5.75 17.2506V10.5006Z" stroke="#3491D1" stroke-linecap="round" stroke-linejoin="round"/>
</svg>
