<svg width="32" height="31" viewBox="0 0 32 31" fill="none" xmlns="http://www.w3.org/2000/svg">
<path d="M0.557129 15.5C0.557129 6.93959 7.49672 0 16.0571 0C24.6175 0 31.5571 6.93959 31.5571 15.5C31.5571 24.0604 24.6175 31 16.0571 31C7.49672 31 0.557129 24.0604 0.557129 15.5Z" fill="#3491D1"/>
<g clip-path="url(#clip0_177_5469)">
<path d="M18.9252 12.6299C20.0671 12.6299 21.1622 13.0835 21.9697 13.891C22.7771 14.6984 23.2307 15.7935 23.2307 16.9354V21.9586H20.3604V16.9354C20.3604 16.5548 20.2092 16.1898 19.94 15.9206C19.6709 15.6515 19.3058 15.5003 18.9252 15.5003C18.5446 15.5003 18.1795 15.6515 17.9104 15.9206C17.6412 16.1898 17.49 16.5548 17.49 16.9354V21.9586H14.6196V16.9354C14.6196 15.7935 15.0732 14.6984 15.8807 13.891C16.6881 13.0835 17.7833 12.6299 18.9252 12.6299Z" stroke="white" stroke-width="1.72222" stroke-linecap="round" stroke-linejoin="round"/>
<path d="M11.7478 13.3477H8.87744V21.9588H11.7478V13.3477Z" stroke="white" stroke-width="1.72222" stroke-linecap="round" stroke-linejoin="round"/>
<path d="M10.3126 11.1956C11.1053 11.1956 11.7478 10.553 11.7478 9.76038C11.7478 8.96775 11.1053 8.3252 10.3126 8.3252C9.52 8.3252 8.87744 8.96775 8.87744 9.76038C8.87744 10.553 9.52 11.1956 10.3126 11.1956Z" stroke="white" stroke-width="1.72222" stroke-linecap="round" stroke-linejoin="round"/>
</g>
<defs>
<clipPath id="clip0_177_5469">
<rect width="17.2222" height="17.2222" fill="white" transform="translate(7.44385 6.88965)"/>
</clipPath>
</defs>
</svg>
