<svg width="14" height="11" viewBox="0 0 14 11" fill="none" xmlns="http://www.w3.org/2000/svg">
<path d="M12.3359 0.167969H1.66927C0.935938 0.167969 0.335938 0.767969 0.335938 1.5013V9.5013C0.335938 10.2346 0.935938 10.8346 1.66927 10.8346H12.3359C13.0693 10.8346 13.6693 10.2346 13.6693 9.5013V1.5013C13.6693 0.767969 13.0693 0.167969 12.3359 0.167969ZM12.0693 3.0013L7.70927 5.72797C7.27594 6.0013 6.72927 6.0013 6.29594 5.72797L1.93594 3.0013C1.86909 2.96378 1.81055 2.91308 1.76386 2.85227C1.71718 2.79147 1.68331 2.72182 1.66432 2.64755C1.64533 2.57328 1.64161 2.49593 1.65338 2.42017C1.66514 2.34442 1.69216 2.27184 1.73279 2.20684C1.77342 2.14183 1.82682 2.08574 1.88976 2.04197C1.95269 1.99819 2.02385 1.96764 2.09893 1.95217C2.17402 1.93669 2.25146 1.93661 2.32657 1.95193C2.40169 1.96726 2.47291 1.99766 2.53594 2.0413L7.0026 4.83464L11.4693 2.0413C11.5323 1.99766 11.6035 1.96726 11.6786 1.95193C11.7537 1.93661 11.8312 1.93669 11.9063 1.95217C11.9814 1.96764 12.0525 1.99819 12.1155 2.04197C12.1784 2.08574 12.2318 2.14183 12.2724 2.20684C12.313 2.27184 12.3401 2.34442 12.3518 2.42017C12.3636 2.49593 12.3599 2.57328 12.3409 2.64755C12.3219 2.72182 12.288 2.79147 12.2413 2.85227C12.1947 2.91308 12.1361 2.96378 12.0693 3.0013Z" fill="#FAFAFA"/>
</svg>
