<svg width="202" height="214" viewBox="0 0 202 214" fill="none" xmlns="http://www.w3.org/2000/svg">
<path d="M101.724 115.404L115.205 101.922L170.76 149.339C177.564 155.147 177.974 165.521 171.648 171.847C165.323 178.172 154.948 177.763 149.141 170.959L101.724 115.404Z" fill="#1C5189"/>
<path d="M111.295 126.619L149.14 170.96C154.948 177.764 165.322 178.173 171.648 171.848C177.973 165.522 177.564 155.148 170.76 149.34L121.263 107.094C119.271 114.274 115.843 120.885 111.295 126.619Z" fill="#1C5189"/>
<path fill-rule="evenodd" clip-rule="evenodd" d="M58.4206 45.6851C52.0764 49.8143 47.051 55.7883 44.0011 62.8686C40.9506 69.9501 40.0202 77.806 41.3342 85.4375C42.6482 93.0684 46.1434 100.112 51.3571 105.683C56.5694 111.252 63.2631 115.099 70.5828 116.761C77.9014 118.422 85.5379 117.828 92.5331 115.05L92.5337 115.05C97.1805 113.205 101.435 110.439 105.052 106.903C108.669 103.366 111.576 99.1278 113.601 94.4267C115.626 89.7254 116.727 84.6572 116.838 79.5127C116.949 74.3682 116.067 69.2545 114.246 64.465L114.246 64.4644C111.503 57.2507 106.739 51.0527 100.576 46.639C94.4151 42.2266 87.1282 39.7909 79.6369 39.6217C72.1458 39.4526 64.7631 41.5571 58.4206 45.6851ZM32.2775 57.8185C36.31 48.4572 42.9773 40.5058 51.4574 34.9865C59.9392 29.4661 69.8465 26.6324 79.925 26.86C90.0034 27.0875 99.7765 30.3653 108.009 36.261C116.239 42.1554 122.554 50.397 126.178 59.9285C128.584 66.258 129.746 73.0057 129.6 79.7878C129.454 86.5701 128.002 93.2601 125.324 99.4768C122.646 105.694 118.793 111.32 113.977 116.029C109.16 120.739 103.476 124.44 97.2447 126.914C87.8587 130.642 77.5948 131.442 67.7573 129.209C57.9209 126.977 48.9733 121.817 42.0369 114.405C35.102 106.995 30.4869 97.6658 28.7543 87.6036C27.0218 77.542 28.2455 67.1786 32.2775 57.8185Z" fill="#1C5189"/>
<path opacity="0.1" d="M165.776 149.783L125.751 117.008C124.51 115.992 123.064 117.421 124.069 118.67L156.39 158.87C157.637 160.421 159.438 161.429 161.314 161.625L162.423 161.741C166.256 162.142 169.139 159.113 168.574 155.28L168.443 154.388C168.184 152.631 167.219 150.965 165.776 149.783Z" fill="#3491D1"/>
<rect width="51.9248" height="8.95255" rx="4.47628" transform="matrix(-0.707107 0.707107 0.707107 0.707107 93.7158 56.9998)" fill="#1C5189"/>
<rect width="51.9248" height="8.95255" rx="4.47628" transform="matrix(0.707107 0.707107 0.707107 -0.707107 57 63.3298)" fill="#1C5189"/>
</svg>
