<svg width="24" height="24" viewBox="0 0 24 24" fill="none" xmlns="http://www.w3.org/2000/svg">
<path d="M0 6.75C0 3.02208 3.02208 0 6.75 0H17.25C20.9779 0 24 3.02208 24 6.75V17.25C24 20.9779 20.9779 24 17.25 24H6.75C3.02208 24 0 20.9779 0 17.25V6.75Z" fill="#3491D1" fill-opacity="0.1"/>
<path d="M14.25 4.5H7.5C7.10218 4.5 6.72064 4.65804 6.43934 4.93934C6.15804 5.22064 6 5.60218 6 6V18C6 18.3978 6.15804 18.7794 6.43934 19.0607C6.72064 19.342 7.10218 19.5 7.5 19.5H16.5C16.8978 19.5 17.2794 19.342 17.5607 19.0607C17.842 18.7794 18 18.3978 18 18V8.25L14.25 4.5Z" stroke="#3491D1" stroke-linecap="round" stroke-linejoin="round"/>
<path d="M13.5 4.5V7.5C13.5 7.89782 13.658 8.27936 13.9393 8.56066C14.2206 8.84196 14.6022 9 15 9H18" stroke="#3491D1" stroke-linecap="round" stroke-linejoin="round"/>
<path d="M9.75 14.25L11.25 15.75L14.25 12.75" stroke="#3491D1" stroke-linecap="round" stroke-linejoin="round"/>
</svg>
