<svg width="23" height="23" viewBox="0 0 23 23" fill="none" xmlns="http://www.w3.org/2000/svg">
<path d="M19.9411 18.5098C19.9411 18.8486 19.8658 19.1969 19.7058 19.5357C19.5458 19.8745 19.3387 20.1945 19.0658 20.4956C18.6047 21.0039 18.0964 21.3709 17.5223 21.6062C16.9577 21.8415 16.3459 21.9638 15.6871 21.9638C14.7272 21.9638 13.7013 21.7379 12.619 21.2768C11.5367 20.8156 10.4544 20.1945 9.38147 19.4133C8.29916 18.6228 7.27331 17.7475 6.29453 16.7781C5.32515 15.7993 4.44989 14.7735 3.66874 13.7006C2.89701 12.6277 2.27585 11.5548 1.82411 10.4913C1.37236 9.4184 1.14648 8.39256 1.14648 7.41377C1.14648 6.7738 1.25942 6.16205 1.4853 5.59737C1.71117 5.02327 2.0688 4.49623 2.56761 4.02566C3.16994 3.43275 3.82874 3.14099 4.52518 3.14099C4.7887 3.14099 5.05222 3.19746 5.28751 3.3104C5.5322 3.42333 5.74866 3.59274 5.91807 3.83744L8.10152 6.91497C8.27092 7.15025 8.39327 7.36671 8.47797 7.57377C8.56268 7.77141 8.60973 7.96905 8.60973 8.14786C8.60973 8.37374 8.54385 8.59961 8.41209 8.81607C8.28975 9.03253 8.11093 9.25841 7.88505 9.48428L7.16979 10.2278C7.06626 10.3313 7.0192 10.4537 7.0192 10.6042C7.0192 10.6795 7.02862 10.7454 7.04744 10.8207C7.07567 10.896 7.10391 10.9525 7.12273 11.0089C7.29214 11.3195 7.58389 11.7242 7.99799 12.2136C8.42151 12.703 8.87325 13.2018 9.36265 13.7006C9.87086 14.1994 10.3603 14.6606 10.8591 15.0841C11.3485 15.4982 11.7531 15.7805 12.0731 15.9499C12.1202 15.9687 12.1767 15.997 12.2425 16.0252C12.3178 16.0534 12.3931 16.0629 12.4778 16.0629C12.6378 16.0629 12.7602 16.0064 12.8637 15.9029L13.579 15.197C13.8142 14.9617 14.0401 14.7829 14.2566 14.67C14.473 14.5382 14.6895 14.4723 14.9248 14.4723C15.1036 14.4723 15.2918 14.51 15.4989 14.5947C15.7059 14.6794 15.9224 14.8017 16.1577 14.9617L19.2729 17.1734C19.5176 17.3428 19.687 17.5404 19.7905 17.7757C19.8846 18.011 19.9411 18.2463 19.9411 18.5098Z" stroke="#E60914" stroke-width="1.43894" stroke-miterlimit="10"/>
<path d="M16.6749 9.72991C16.6749 9.16522 16.2325 8.29937 15.5737 7.59352C14.9714 6.94413 14.1714 6.43591 13.3809 6.43591" stroke="#E60914" stroke-width="1.43894" stroke-linecap="round" stroke-linejoin="round"/>
<path d="M19.9688 9.72898C19.9688 6.08676 17.0231 3.14099 13.3809 3.14099" stroke="#E60914" stroke-width="1.43894" stroke-linecap="round" stroke-linejoin="round"/>
</svg>
