<svg width="24" height="24" viewBox="0 0 24 24" fill="none" xmlns="http://www.w3.org/2000/svg">
<path d="M0 6.75C0 3.02208 3.02208 0 6.75 0H17.25C20.9779 0 24 3.02208 24 6.75V17.25C24 20.9779 20.9779 24 17.25 24H6.75C3.02208 24 0 20.9779 0 17.25V6.75Z" fill="#3491D1" fill-opacity="0.1"/>
<path d="M16 4.5H7C6.17157 4.5 5.5 5.17157 5.5 6V18C5.5 18.8284 6.17157 19.5 7 19.5H16C16.8284 19.5 17.5 18.8284 17.5 18V6C17.5 5.17157 16.8284 4.5 16 4.5Z" stroke="#3491D1" stroke-linecap="round" stroke-linejoin="round"/>
<path d="M8.5 7.5H14.5" stroke="#3491D1" stroke-linecap="round" stroke-linejoin="round"/>
<path d="M14.5 13.5V16.5003" stroke="#3491D1" stroke-linecap="round" stroke-linejoin="round"/>
<path d="M14.5 10.5H14.5075" stroke="#3491D1" stroke-linecap="round" stroke-linejoin="round"/>
<path d="M11.5 10.5H11.5075" stroke="#3491D1" stroke-linecap="round" stroke-linejoin="round"/>
<path d="M8.5 10.5H8.5075" stroke="#3491D1" stroke-linecap="round" stroke-linejoin="round"/>
<path d="M11.5 13.5H11.5075" stroke="#3491D1" stroke-linecap="round" stroke-linejoin="round"/>
<path d="M8.5 13.5H8.5075" stroke="#3491D1" stroke-linecap="round" stroke-linejoin="round"/>
<path d="M11.5 16.5H11.5075" stroke="#3491D1" stroke-linecap="round" stroke-linejoin="round"/>
<path d="M8.5 16.5H8.5075" stroke="#3491D1" stroke-linecap="round" stroke-linejoin="round"/>
</svg>
