<svg width="32" height="31" viewBox="0 0 32 31" fill="none" xmlns="http://www.w3.org/2000/svg">
<path d="M0.775391 15.5C0.775391 6.93959 7.71498 0 16.2754 0C24.8358 0 31.7754 6.93959 31.7754 15.5C31.7754 24.0604 24.8358 31 16.2754 31C7.71498 31 0.775391 24.0604 0.775391 15.5Z" fill="#3491D1"/>
<g clip-path="url(#clip0_177_5466)">
<path d="M23.4593 9.75953C23.4593 9.75953 22.957 11.2665 22.0241 12.1993C23.1722 19.3753 15.2787 24.6137 9.10742 20.5234C10.6861 20.5952 12.2648 20.0929 13.413 19.0882C9.82501 18.0118 8.03103 13.778 9.82501 10.4771C11.4037 12.3429 13.8435 13.4193 16.2833 13.3475C15.6375 10.3336 19.1537 8.61138 21.3065 10.6206C22.0958 10.6206 23.4593 9.75953 23.4593 9.75953Z" stroke="white" stroke-width="1.72222" stroke-linecap="round" stroke-linejoin="round"/>
</g>
<defs>
<clipPath id="clip0_177_5466">
<rect width="17.2222" height="17.2222" fill="white" transform="translate(7.66992 6.88965)"/>
</clipPath>
</defs>
</svg>
